<?xml version="1.0" encoding="UTF-8" standalone="no"?>
<!-- Created with Inkscape (http://www.inkscape.org/) -->

<svg
   width="720"
   height="720"
   viewBox="0 0 190.5 190.5"
   version="1.1"
   id="svg1"
   xml:space="preserve"
   inkscape:version="1.4 (e7c3feb1, 2024-10-09)"
   sodipodi:docname="icon-alert.svg"
   xmlns:inkscape="http://www.inkscape.org/namespaces/inkscape"
   xmlns:sodipodi="http://sodipodi.sourceforge.net/DTD/sodipodi-0.dtd"
   xmlns="http://www.w3.org/2000/svg"
   xmlns:svg="http://www.w3.org/2000/svg"><sodipodi:namedview
     id="namedview1"
     pagecolor="#ffffff"
     bordercolor="#000000"
     borderopacity="0.25"
     inkscape:showpageshadow="2"
     inkscape:pageopacity="0.0"
     inkscape:pagecheckerboard="true"
     inkscape:deskcolor="#d1d1d1"
     inkscape:document-units="mm"
     inkscape:zoom="0.52410024"
     inkscape:cx="144.05641"
     inkscape:cy="404.50277"
     inkscape:window-width="1696"
     inkscape:window-height="919"
     inkscape:window-x="1545"
     inkscape:window-y="25"
     inkscape:window-maximized="0"
     inkscape:current-layer="layer1" /><defs
     id="defs1" /><g
     inkscape:label="Capa 1"
     inkscape:groupmode="layer"
     id="layer1"><path
       style="fill:#000000;stroke-width:1.78054"
       d="m 38.384557,188.16824 c -1.771932,-0.71879 -1.774477,-0.74056 -1.774477,-15.17513 v -13.36717 l 0.968253,-0.96824 0.968254,-0.96825 h 56.693799 56.693794 l 0.96827,0.96825 0.96822,0.96824 v 13.42243 13.4224 l -0.7994,0.9294 -0.79943,0.9294 -56.5887,0.0633 c -31.458812,0.0352 -56.903958,-0.0647 -57.298583,-0.22465 z m 9.980865,-38.18233 -0.8689,-0.74741 3.516857,-28.81618 c 5.448953,-44.647305 5.684987,-46.414897 6.633002,-49.672734 3.35953,-11.544976 12.540206,-20.026561 24.27127,-22.423061 2.913034,-0.595094 4.258271,-0.644167 14.641707,-0.534107 11.364202,0.120453 11.452142,0.126757 14.415142,1.031707 5.64826,1.725085 9.49572,3.945964 13.53517,7.812965 4.59669,4.400485 7.62927,9.890039 8.98709,16.268363 0.38666,1.816389 3.7038,28.328917 8.47181,67.711847 l 1.04111,8.59934 -0.88163,0.75831 -0.8816,0.75834 H 95.240386 49.23432 Z M 13.893423,80.878613 c -1.320024,-0.804949 -1.925971,-2.294302 -1.71065,-4.204609 0.202542,-1.796959 1.189983,-2.983413 2.871807,-3.450611 1.561644,-0.433813 23.662147,-0.433813 25.223788,0 3.148073,0.874511 4.113863,4.781721 1.763036,7.132546 l -1.147226,1.147225 -12.990312,-0.0013 c -12.124781,-0.0011 -13.058282,-0.0426 -14.010443,-0.623233 z m 135.592447,0.106028 c -1.92149,-1.042586 -2.57886,-4.502723 -1.19072,-6.267456 1.38685,-1.763115 1.89553,-1.826378 14.68477,-1.826378 9.50335,0 12.0011,0.09221 12.92192,0.476934 3.01655,1.260396 3.34068,6.166213 0.50432,7.632954 -1.42953,0.739245 -25.55482,0.724858 -26.92029,-0.01602 z M 53.337936,45.432338 c -1.84283,-1.159353 -18.987808,-18.69412 -19.226158,-19.663263 -0.562355,-2.286568 1.093174,-4.853669 3.466286,-5.374893 2.071117,-0.454892 2.871501,0.173053 12.344201,9.684685 7.373898,7.404207 9.218297,9.433283 9.489016,10.439128 0.993802,3.692441 -2.946981,6.881187 -6.073345,4.914343 z m 80.161194,0.311633 c -2.0212,-0.836029 -3.08624,-3.869214 -2.05052,-5.839929 0.27915,-0.531197 4.65576,-5.081281 9.72578,-10.111298 9.76807,-9.690997 10.0514,-9.902143 12.3876,-9.232126 1.40377,0.402597 2.5177,1.473045 2.97509,2.858969 0.76628,2.321776 0.51909,2.65552 -9.24235,12.478715 -5.03699,5.068869 -9.56068,9.428879 -10.05264,9.688906 -0.97667,0.516229 -2.69946,0.588382 -3.74296,0.156759 z M 93.418539,35.142333 c -0.36437,-0.151703 -1.109669,-0.74815 -1.656223,-1.325432 l -0.993735,-1.049599 -0.0932,-13.660792 -0.0932,-13.6607931 0.762297,-1.1409547 c 2.067409,-3.0943569 6.285942,-2.896408 7.953146,0.3731905 0.522078,1.0238473 0.579169,2.4092565 0.579169,14.0543503 0,11.638635 -0.05741,13.032752 -0.579169,14.071295 -1.080437,2.15049 -3.765638,3.218679 -5.879073,2.338735 z"
       id="path1"
       inkscape:label="icon-alert" /></g></svg>
