<?xml version="1.0" encoding="UTF-8" standalone="no"?>
<!-- Created with Inkscape (http://www.inkscape.org/) -->

<svg
   width="720"
   height="720"
   viewBox="0 0 190.5 190.5"
   version="1.1"
   id="svg1"
   xml:space="preserve"
   sodipodi:docname="icon-good.svg"
   inkscape:version="1.4 (e7c3feb1, 2024-10-09)"
   xmlns:inkscape="http://www.inkscape.org/namespaces/inkscape"
   xmlns:sodipodi="http://sodipodi.sourceforge.net/DTD/sodipodi-0.dtd"
   xmlns="http://www.w3.org/2000/svg"
   xmlns:svg="http://www.w3.org/2000/svg"><sodipodi:namedview
     id="namedview1"
     pagecolor="#ffffff"
     bordercolor="#000000"
     borderopacity="0.25"
     inkscape:showpageshadow="2"
     inkscape:pageopacity="0.0"
     inkscape:pagecheckerboard="0"
     inkscape:deskcolor="#d1d1d1"
     inkscape:document-units="mm"
     inkscape:zoom="0.37059484"
     inkscape:cx="-271.18565"
     inkscape:cy="331.89885"
     inkscape:window-width="1920"
     inkscape:window-height="1027"
     inkscape:window-x="1440"
     inkscape:window-y="25"
     inkscape:window-maximized="1"
     inkscape:current-layer="layer1" /><defs
     id="defs1" /><g
     inkscape:label="Capa 1"
     inkscape:groupmode="layer"
     id="layer1"><path
       style="fill:#000000;stroke-width:1.20962"
       d="m 62.305967,186.61964 c -8.541557,-1.00045 -18.583462,-4.93193 -27.621556,-10.81403 -5.601036,-3.64522 -6.397218,-3.88268 -13.018331,-3.88268 -3.585561,0 -5.275772,-0.11709 -5.542712,-0.38405 -0.572657,-0.57266 -0.556826,-95.413092 0.01601,-95.871286 0.220031,-0.176 3.208458,-0.395986 6.640949,-0.488858 7.093358,-0.191925 10.665596,-0.896317 15.01102,-2.95995 6.951203,-3.301111 11.07205,-8.088466 17.484979,-20.312999 3.667863,-6.991804 4.404035,-8.243068 8.567493,-14.562083 5.92412,-8.991226 8.156055,-14.813159 10.597897,-27.6442819 0.44808,-2.3545191 0.970203,-4.4683251 1.160273,-4.6973451 0.677467,-0.8162988 3.265133,-1.4232683 6.043755,-1.4176406 5.899737,0.011973 10.02825,1.6014336 13.624941,5.2456151 4.37616,4.4339495 6.394225,10.0436605 7.199405,20.0125365 0.71226,8.818122 -0.74951,18.333852 -5.179672,33.718638 -1.280024,4.445171 -1.555151,5.779458 -1.253875,6.080869 0.29406,0.294184 8.022717,0.424246 32.454707,0.546161 l 32.06876,0.160022 1.89855,0.716371 c 2.93961,1.109178 5.26947,2.613253 7.56615,4.88443 3.30394,3.26724 4.76664,6.899678 4.77353,11.854463 0.01,6.553193 -2.72734,11.685272 -8.19954,15.377868 -2.47418,1.66957 -2.6224,2.04878 -1.14245,2.923 2.86002,1.68946 6.02252,5.67508 7.4351,9.37031 0.88966,2.32728 1.06836,7.64513 0.34418,10.24147 -1.70758,6.12199 -6.57307,11.08974 -12.67552,12.94196 -0.70411,0.2137 -1.47868,0.45219 -1.72128,0.52997 -0.29754,0.0955 0.0987,0.71216 1.21749,1.89511 3.35973,3.55242 4.5114,8.09031 3.39288,13.36887 -1.43088,6.75273 -6.25848,11.5606 -13.35707,13.30249 l -2.33386,0.5727 -0.20579,3.65801 c -0.23072,4.1014 -0.86037,6.28427 -2.59475,8.99555 -2.04633,3.19891 -5.72382,5.83374 -9.29135,6.65703 -1.65378,0.38165 -70.091443,0.36463 -73.360305,-0.0183 z"
       id="path1"
       inkscape:label="icon-good" /></g></svg>
