<?xml version="1.0" encoding="UTF-8" standalone="no"?>
<!-- Created with Inkscape (http://www.inkscape.org/) -->

<svg
   width="1272.604"
   height="881.52673"
   viewBox="0 0 336.7098 233.23728"
   version="1.1"
   id="svg1"
   xml:space="preserve"
   inkscape:version="1.4 (e7c3feb1, 2024-10-09)"
   sodipodi:docname="icon_base.svg"
   xmlns:inkscape="http://www.inkscape.org/namespaces/inkscape"
   xmlns:sodipodi="http://sodipodi.sourceforge.net/DTD/sodipodi-0.dtd"
   xmlns="http://www.w3.org/2000/svg"
   xmlns:svg="http://www.w3.org/2000/svg"><sodipodi:namedview
     id="namedview1"
     pagecolor="#505050"
     bordercolor="#eeeeee"
     borderopacity="1"
     inkscape:showpageshadow="0"
     inkscape:pageopacity="0"
     inkscape:pagecheckerboard="false"
     inkscape:deskcolor="#505050"
     inkscape:document-units="px"
     inkscape:zoom="0.35355339"
     inkscape:cx="510.5311"
     inkscape:cy="506.28846"
     inkscape:window-width="1616"
     inkscape:window-height="933"
     inkscape:window-x="1605"
     inkscape:window-y="25"
     inkscape:window-maximized="0"
     inkscape:current-layer="layer4"
     inkscape:clip-to-page="true" /><defs
     id="defs1"><inkscape:path-effect
       effect="bspline"
       id="path-effect3"
       is_visible="true"
       lpeversion="1.3"
       weight="33.333333"
       steps="2"
       helper_size="0"
       apply_no_weight="true"
       apply_with_weight="true"
       only_selected="false"
       uniform="false" /></defs><g
     inkscape:groupmode="layer"
     id="layer4"
     inkscape:label="mid"
     style="display:inline"
     transform="translate(-22.79439,-64.143255)"><path
       d="m 151.36988,168.89108 c -0.02,-0.002 -0.056,0.0345 -0.11046,0.11155 -0.43518,0.61651 -2.03109,3.80762 -3.40917,7.39785 -1.37806,3.59023 -2.53863,7.57908 -3.48152,12.47485 -0.94289,4.89576 -1.66795,10.69837 -1.99435,16.13812 -0.32639,5.43975 -0.25401,10.51667 0.0724,15.04981 0.32638,4.53314 0.90698,8.52185 1.59601,12.65605 0.68904,4.13421 1.48682,8.41343 3.04621,13.74437 1.55938,5.33095 3.88035,11.71358 6.4189,17.62478 2.53855,5.91119 5.29438,11.35075 7.68788,15.5575 2.39349,4.20676 4.42454,7.18031 6.45536,10.15401 l -0.87066,-1.77668 c -0.87035,-1.77696 -2.61099,-5.33083 -4.5693,-9.75514 -1.95831,-4.42432 -4.13429,-9.71889 -6.12887,-15.15863 -1.99457,-5.43977 -3.80761,-11.02449 -5.2582,-16.39172 -1.45061,-5.36722 -2.5386,-10.51658 -3.3727,-15.84753 -0.8341,-5.33097 -1.4141,-10.84301 -1.48664,-17.4795 -0.0726,-6.63646 0.36232,-14.39738 1.16014,-21.43278 0.79783,-7.03542 1.95857,-13.34526 2.90146,-17.47949 0.82503,-3.61744 1.48334,-5.56908 1.34353,-5.58742 z"
       style="display:inline;fill:#6e9874;fill-opacity:1;stroke-width:1.16302"
       id="path1-0" /></g><g
     inkscape:groupmode="layer"
     id="layer5"
     inkscape:label="right"
     transform="translate(-22.79439,-64.143255)"><path
       d="m 332.53474,64.1455 c -13.70018,0.02429 -28.35492,0.254835 -32.58697,0.671493 -52.87474,5.205668 -95.88455,25.442044 -122.02769,57.414237 -13.96454,17.07819 -22.38823,38.67259 -25.87639,66.33462 -2.5428,20.16536 -0.75304,40.9344 5.36868,62.29207 3.47715,12.13118 8.59436,23.20794 15.06505,32.61036 4.37606,6.35881 8.24725,11.23037 8.9242,11.23037 0.20908,0 0.55339,-1.18348 0.76508,-2.62993 1.47423,-10.07304 4.86331,-23.04808 9.2567,-35.4389 6.02301,-16.987 8.15018,-29.58614 8.20156,-48.58034 0.067,-24.80137 -4.28761,-39.82802 -19.49504,-67.27059 l -1.68798,-3.04511 2.04713,2.21472 c 11.70633,12.66445 20.42705,29.49962 24.288,46.88856 1.35277,6.09256 1.54269,8.29651 1.78538,20.73464 l 0.27154,13.91741 4.01806,-7.83752 c 4.12797,-8.05133 5.1843,-9.79084 13.19641,-21.72446 13.71438,-20.42686 32.36728,-40.5916 51.76694,-55.9635 7.84776,-6.2184 16.8877,-12.90201 17.45063,-12.90201 0.2628,0 -5.62909,5.91732 -13.093,13.14959 -7.46394,7.2323 -14.94902,14.6446 -16.63385,16.4717 -15.13707,16.41509 -27.27882,32.87291 -40.64162,55.08959 -3.60976,6.00147 -13.2216,25.39864 -14.2216,28.70003 -0.34729,1.14646 -0.26862,1.22826 0.69381,0.72211 0.5971,-0.31404 1.43199,-0.9803 1.85504,-1.48121 1.40068,-1.65849 7.51166,-5.6127 12.97438,-8.39529 10.88421,-5.5442 20.18685,-8.65928 31.41866,-10.52022 8.23953,-1.36518 27.99187,-1.37067 35.31538,-0.0109 9.6839,1.79984 18.11852,4.68329 11.26845,3.85211 -6.71503,-0.8148 -30.57075,-0.4253 -36.623,0.59802 -15.9522,2.69727 -31.30217,8.36832 -43.5719,16.09678 -5.54016,3.48965 -17.62717,13.24077 -19.09836,15.40786 -1.24333,1.83147 -3.23468,6.48568 -5.98847,13.99523 -2.48622,6.77988 -8.38416,29.48415 -7.87453,30.31347 0.31585,0.51398 10.84629,0.40934 18.7822,-0.18665 v 0.001 c 29.51484,-2.21656 55.15571,-11.71112 78.86933,-29.20502 19.88732,-14.67114 37.32627,-37.07547 47.46047,-60.97303 5.57073,-13.1364 9.76728,-27.02568 11.99218,-39.69041 2.34407,-13.34313 3.56882,-25.23562 5.37955,-52.23982 1.16871,-17.429473 3.74269,-33.897103 7.04034,-45.043325 0.7872,-2.660771 1.12586,-4.708341 0.82712,-5.00191 -0.41562,-0.408414 -13.16169,-0.590222 -26.86187,-0.565926 z M 151.57082,168.33021"
       style="display:inline;fill:#0c3a30;fill-opacity:1;stroke-width:1.16302"
       id="path1-9" /></g><g
     inkscape:groupmode="layer"
     id="layer2"
     inkscape:label="left"
     style="display:inline"
     transform="translate(-22.79439,-64.143255)"><path
       d="m 22.79439,95.179846 c 0.49989,2.72688 1.05061,4.20435 1.56065,6.811254 0.91702,3.10047 2.12286,15.19078 3.09191,31.00509 0.4945,8.06971 1.1654,18.5341 1.491,23.25409 -0.87709,12.3443 2.3389,24.74791 5.96072,36.54245 l 4.9279,16.60993 c 1.16942,3.49451 8.4118,18.61079 9.53476,19.90097 0.41226,0.47369 1.35772,1.98125 2.101,3.34985 0.74326,1.3686 1.54353,2.73888 1.77831,3.04512 0.23481,0.30625 1.86074,2.54998 3.61321,4.98613 l 12.80624,14.26621 10.7466,10.60023 c 1.07032,0.80223 2.77929,2.21333 3.79769,3.13598 3.592667,3.25487 13.95139,9.6626 22.13531,13.69268 9.88739,4.86891 22.1736,9.12315 30.70308,10.63124 11.98561,2.11916 17.14396,2.68149 21.55469,2.35021 1.47196,-0.11058 2.67617,-0.32953 2.67617,-0.48701 0,-0.15747 -0.62032,-1.32772 -1.37834,-2.59999 -5.12323,-8.59874 -13.08406,-24.69422 -15.65819,-31.65754 -0.3377,-0.91357 -0.763,-1.78552 -0.94466,-1.93777 -0.18165,-0.15226 -0.83749,-1.26533 -1.45727,-2.47373 -5.06979,-9.88488 -32.10025,-25.57524 -47.623713,-27.64383 -1.07673,-0.14348 -2.8316,-0.52463 -3.92992,-0.62089 -6.042292,-0.52951 -13.270877,-1.39066 -20.087077,-1.24122 -12.0717,0.45036 -10.83649,-0.69067 3.18442,-2.94118 21.27393,-3.4147 42.66842,2.01958 60.70966,15.42092 1.00711,0.74811 1.83109,1.25368 1.83109,1.12314 0,-0.13055 -0.81754,-2.11351 -2.03298,-4.29232 -2.75543,-4.93942 -3.58717,-7.66418 -6.58868,-12.05422 -1.69187,-2.9284 -9.89429,-18.9174 -17.36084,-29.69476 -2.28854,-3.3033 -4.56424,-6.60582 -5.05688,-7.33908 -0.49266,-0.73327 -1.55424,-2.05962 -2.35947,-2.9477 -0.80521,-0.88805 -2.08124,-2.56887 -2.83561,-3.73456 -0.7544,-1.16569 -2.56668,-3.36505 -4.02678,-4.88764 -1.460123,-1.52257 -3.199133,-3.51591 -3.864623,-4.42945 -2.65472,-3.64422 -7.797617,-9.19839 -17.569807,-18.97483 -10.15807,-10.16247 -11.30888,-11.81175 -5.01388,-7.18563 4.57401,3.3614 2.0035,1.36237 5.61082,4.08283 4.79214,3.61398 7.7579,6.11361 8.52534,6.85204 2.884197,2.77525 6.044697,6.33417 9.079287,9.30949 9.875583,9.62594 12.280843,12.23854 18.701663,20.31182 7.17927,9.02691 14.30188,19.58595 20.62037,30.57086 2.13969,3.7199 4.01712,6.77218 4.17207,6.78295 0.15492,0.0106 0.20762,-4.73848 0.11699,-10.55397 -0.21615,-13.86941 1.26305,-22.35735 5.65001,-32.61364 1.37579,-3.21651 4.425,-9.59377 6.70621,-13.98488 4.40698,-8.48302 5.01968,-8.16467 10.06368,-19.39166 0,-0.71397 -15.40618,-16.4407 -17.75918,-18.12866 -0.62592,-0.44902 -2.14692,-1.56368 -3.38031,-2.477 -8.75647,-6.48418 -27.57638,-16.88745 -30.55018,-16.88745 -0.56187,0 -1.52186,-0.33233 -2.1331,-0.73896 -0.61128,-0.40663 -4.66091,-1.80073 -8.99931,-3.0979 -4.338373,-1.29717 -8.648633,-2.61587 -9.578285,-2.93029 -0.929652,-0.3144 -2.831455,-0.75362 -4.225935,-0.97621 -1.39451,-0.22259 -5.16108,-0.948434 -8.37026,-1.612894 -9.3133,-1.92833 -24.14178,-3.40029 -37.90993,-3.76288 z m 128.42373,73.119204"
       style="display:inline;fill:#6e9874;fill-opacity:1;stroke-width:1.16302"
       id="path1-7" /></g></svg>
