<?xml version="1.0" encoding="UTF-8" standalone="no"?>
<!-- Created with Inkscape (http://www.inkscape.org/) -->

<svg
   width="720"
   height="720"
   viewBox="0 0 190.5 190.5"
   version="1.1"
   id="svg1"
   xml:space="preserve"
   inkscape:version="1.4 (e7c3feb1, 2024-10-09)"
   sodipodi:docname="icon-error.svg"
   xmlns:inkscape="http://www.inkscape.org/namespaces/inkscape"
   xmlns:sodipodi="http://sodipodi.sourceforge.net/DTD/sodipodi-0.dtd"
   xmlns="http://www.w3.org/2000/svg"
   xmlns:svg="http://www.w3.org/2000/svg"><sodipodi:namedview
     id="namedview1"
     pagecolor="#ffffff"
     bordercolor="#000000"
     borderopacity="0.25"
     inkscape:showpageshadow="2"
     inkscape:pageopacity="0.0"
     inkscape:pagecheckerboard="0"
     inkscape:deskcolor="#d1d1d1"
     inkscape:document-units="mm"
     inkscape:zoom="0.52410024"
     inkscape:cx="145.01043"
     inkscape:cy="412.1349"
     inkscape:window-width="1600"
     inkscape:window-height="919"
     inkscape:window-x="1554"
     inkscape:window-y="25"
     inkscape:window-maximized="0"
     inkscape:current-layer="layer1" /><defs
     id="defs1" /><g
     inkscape:label="Capa 1"
     inkscape:groupmode="layer"
     id="layer1"><path
       style="fill:#000000;stroke-width:1.51003"
       d="M 89.285853,161.01121 C 65.647551,158.29556 45.99017,144.61176 35.821017,123.79354 c -4.531911,-9.2777 -6.555389,-17.99025 -6.575783,-28.313597 -0.0151,-7.647776 0.962713,-13.759373 3.372876,-21.081204 6.94937,-21.111473 24.635819,-37.583075 46.21721,-43.04264 11.248464,-2.845586 22.97664,-2.734889 33.9744,0.32067 23.18415,6.441359 40.97365,24.72354 46.58206,47.872122 1.3976,5.768517 1.72251,8.67492 1.72724,15.450514 0.004,7.162095 -0.38101,10.413805 -1.95093,16.433745 -1.28974,4.94563 -2.31412,7.66656 -4.75921,12.64132 -9.62378,19.58039 -27.37204,32.74564 -49.05213,36.38573 -3.97935,0.66814 -12.506501,0.9605 -16.070897,0.55101 z m 10.741127,-23.18822 c 0.54024,-0.31666 1.26711,-0.99845 1.61528,-1.51507 0.60486,-0.89755 0.63301,-1.19177 0.63301,-6.61509 0,-5.42349 -0.0282,-5.71701 -0.63206,-6.60445 -1.29122,-1.89718 -1.825173,-2.09481 -5.919434,-2.19094 -3.410046,-0.08 -3.801727,-0.0358 -4.96616,0.56185 -0.91983,0.47205 -1.43628,0.99013 -1.896206,1.90217 -0.585526,1.16116 -0.632065,1.6251 -0.632065,6.30221 0,4.51496 0.06087,5.1745 0.575635,6.23788 1.027721,2.12297 2.479898,2.64187 7.149623,2.55478 2.539084,-0.0474 3.265264,-0.16029 4.072377,-0.63334 z m -0.347633,-26.24788 c 1.483163,-0.90429 1.965583,-1.99655 2.156663,-4.88296 0.52653,-7.953802 2.05558,-53.074342 1.82666,-53.903376 -0.14194,-0.514401 -0.70865,-1.372113 -1.25916,-1.906027 l -1.00093,-0.970754 -5.814087,-0.07795 c -5.418294,-0.07265 -5.876422,-0.03936 -6.729642,0.489042 -0.503561,0.311845 -1.177589,0.97899 -1.49784,1.482543 -0.559195,0.879248 -0.575427,1.166195 -0.40926,7.236219 0.09511,3.476366 0.546895,16.087582 1.003835,28.024923 0.61973,16.18971 0.928788,21.93872 1.216391,22.62705 0.212061,0.50753 0.791696,1.26452 1.288074,1.6822 0.880992,0.74132 0.990728,0.75939 4.603128,0.75836 3.197018,-9e-4 3.825208,-0.077 4.616168,-0.55927 z m -72.282894,43.01625 c -1.030437,-0.62838 -3.851808,-3.96992 -6.435535,-7.62204 C 12.787953,135.41676 7.2250195,121.8998 5.2376056,108.76441 2.309492,89.411687 5.7972049,68.963681 14.79084,52.755046 c 3.287043,-5.924018 8.504171,-13.122179 11.579181,-15.975991 1.281647,-1.189454 1.577892,-1.334363 2.727906,-1.334363 2.39144,0 4.068198,1.540934 4.070353,3.740639 0.0014,1.396635 -0.157005,1.663427 -2.998697,5.051571 -7.181778,8.562812 -13.218473,20.592321 -15.817286,31.51959 -1.820712,7.65557 -2.385584,13.260546 -2.165797,21.490266 0.244606,9.159152 1.403418,15.751022 4.197629,23.878062 3.192438,9.28532 7.471887,17.03482 13.620946,24.66571 1.331704,1.65261 2.587669,3.32079 2.791035,3.70705 0.84246,1.60013 0.129228,4.13768 -1.430267,5.08865 -1.103985,0.67323 -2.870106,0.67549 -3.96939,0.004 z m 132.181807,0.0136 c -0.62961,-0.32858 -1.21059,-0.97096 -1.62841,-1.80047 -0.81089,-1.60989 -0.63798,-2.85681 0.61125,-4.40801 3.26551,-4.0548 5.22811,-6.66189 6.77443,-8.99895 6.33736,-9.57812 10.71365,-21.05855 12.54538,-32.91064 0.52253,-3.38109 0.6256,-5.21652 0.62917,-11.206727 0.004,-7.635005 -0.28191,-10.571646 -1.67808,-17.201975 -2.57594,-12.232984 -8.57948,-24.588801 -16.64378,-34.254359 -2.69459,-3.229627 -3.14014,-4.270078 -2.56927,-5.999797 0.35078,-1.062878 1.64267,-2.288229 2.68948,-2.550963 2.0715,-0.519913 3.74954,0.682287 7.49336,5.368451 10.24343,12.821803 16.44579,28.392142 18.18413,45.649251 0.44045,4.372657 0.36651,14.407699 -0.13772,18.681079 -1.7333,14.69151 -6.55618,27.70553 -14.88713,40.17134 -3.47465,5.1992 -6.83172,9.23973 -8.02136,9.65444 -1.29124,0.45013 -2.23329,0.39614 -3.36151,-0.19267 z"
       id="path1"
       inkscape:label="icon-error" /></g></svg>
